<?xml version="1.0" encoding="UTF-8"?>
<!-- Generated by Pixelmator Pro 3.6.17 -->
<svg width="400" height="225" viewBox="0 0 400 225" xmlns="http://www.w3.org/2000/svg">
    <path id="Rectangle" fill="#ffffff" fill-rule="evenodd" stroke="none" d="M 96 175 C 96 179.970566 100.029434 184 105 184 L 269 184 C 273.970581 184 278 179.970566 278 175 L 278 52 C 278 47.029434 273.970581 43 269 43 L 105 43 C 100.029434 43 96 47.029434 96 52 Z"/>
    <path id="Shape" fill="#346695" fill-rule="evenodd" stroke="none" d="M 183.411499 190.950729 C 121.320587 190.92569 103.620903 190.689209 101.283226 189.853485 C 99.644295 189.267548 97.35569 188.073334 96.197433 187.199661 C 95.039177 186.325989 93.151337 184.291168 92.002235 182.677841 C 90.853134 181.064529 89.463173 178.432343 88.913437 176.828552 C 88.161438 174.634644 87.978249 158.319611 88.173668 110.944595 C 88.433426 47.976639 88.433426 47.976639 90.954872 43.898773 C 92.517288 41.371918 95.027405 38.861877 97.554367 37.299454 C 101.632401 34.778015 101.632401 34.778015 182.512711 34.547485 C 256.208557 34.337433 263.717438 34.43985 267.045349 35.700394 C 269.054138 36.461288 272.093719 38.479858 273.799957 40.186111 C 275.506226 41.892365 277.518066 45.095764 278.270782 47.304749 C 279.286621 50.286102 279.639282 54.362686 279.639282 63.124084 C 279.639282 73.500565 279.455109 75.093735 278.115692 76.305939 C 277.27771 77.064285 275.799286 77.684769 274.830353 77.684769 C 273.86142 77.684769 272.485016 76.851532 271.771667 75.833115 C 270.754791 74.381302 270.474731 71.575439 270.474731 62.839691 C 270.474731 54.02121 270.190582 51.216919 269.112091 49.391174 C 268.36264 48.122437 266.711395 46.471222 265.442688 45.721771 C 263.3508 44.486053 255.752197 44.359131 183.866425 44.359131 C 114.556717 44.359131 104.289116 44.518311 102.147049 45.626007 C 100.799614 46.322784 98.943665 48.369888 98.02272 50.175095 C 96.392365 53.370865 96.348267 55.005783 96.348267 112.253685 C 96.348267 160.201935 96.559029 171.544724 97.490601 173.731018 C 98.118881 175.205536 99.648666 177.349258 100.890099 178.494827 C 103.147263 180.577682 103.147263 180.577682 182.714264 180.79837 C 245.522858 180.972565 262.742737 180.797089 264.472321 179.965225 C 265.677399 179.38562 267.520935 177.637482 268.569061 176.080475 C 270.323975 173.473495 270.474731 172.346878 270.474731 161.837921 C 270.474731 151.840591 270.663544 150.255402 271.998322 149.047455 C 272.836273 148.289093 274.448425 147.66861 275.580841 147.66861 C 276.713226 147.66861 278.08963 148.1185 278.639496 148.668365 C 279.329315 149.358185 279.636749 153.555634 279.631134 162.206924 C 279.623749 173.616547 279.446381 175.125 277.661652 178.957733 C 276.582153 181.27594 274.081757 184.555161 272.100525 186.251022 C 270.120636 187.945724 267.164063 189.703613 265.530304 190.157471 C 263.661194 190.676712 233.215515 190.97081 183.411499 190.950729 Z M 142.9534 171.67038 C 141.18277 171.864517 140.259216 171.396347 139.188126 169.761673 C 138.089432 168.084839 137.965378 167.164597 138.63884 165.686539 C 139.117279 164.636475 143.873947 159.693176 149.209229 154.701401 C 158.909744 145.625458 158.909744 145.625458 158.663498 141.856476 C 158.417267 138.087494 158.417267 138.087494 136.478943 137.670929 C 115.988144 137.28183 114.462692 137.147644 113.359291 135.637115 C 112.380486 134.29715 112.17794 127.5037 112.17794 96.01387 C 112.17794 64.510696 112.380211 57.731155 113.360138 56.390625 C 114.501656 54.829041 116.102226 54.765518 159.877472 54.544495 C 204.824493 54.317566 205.231644 54.330566 207.434021 56.062973 C 209.655426 57.810318 209.655426 57.810318 209.655426 95.929108 C 209.655426 134.047897 209.655426 134.047897 207.744293 135.843323 C 205.917847 137.559174 204.985458 137.648712 186.707489 137.863129 C 167.581818 138.087494 167.581818 138.087494 167.357178 142.253204 C 167.132538 146.4189 167.132538 146.4189 177.146591 155.504745 C 185.991257 163.529617 187.160629 164.904053 187.160629 167.274994 C 187.160629 168.751404 186.620926 170.407303 185.961288 170.954742 C 185.301666 171.502197 183.795715 171.829285 182.614761 171.68161 C 181.288193 171.515747 177.39296 168.547363 172.422882 163.914856 C 167.998306 159.790802 163.729553 156.301575 162.936768 156.16098 C 162.044586 156.002762 158.409637 158.859955 153.3974 163.659241 C 147.753342 169.063538 144.588562 171.491074 142.9534 171.67038 Z M 294.728394 150.16803 C 293.486084 150.16803 292.019745 149.71814 291.469879 149.168274 C 290.920013 148.618393 290.470093 147.079132 290.470093 145.747681 C 290.470093 144.416229 291.31366 142.322693 292.344666 141.095383 C 293.375671 139.868073 295.392944 136.627182 296.827515 133.893417 C 298.262054 131.159653 299.949158 126.860916 300.57663 124.34066 C 301.204102 121.820412 301.717499 116.162971 301.717499 111.768562 C 301.717499 105.697624 301.254791 102.343102 299.790894 97.801048 C 298.731262 94.513306 296.200592 89.342361 294.167206 86.310028 C 292.029968 83.122833 290.470093 79.831741 290.470093 78.509598 C 290.470093 77.251694 291.009796 75.774612 291.669434 75.227158 C 292.329071 74.679718 293.922455 74.352631 295.210266 74.50029 C 297.023621 74.708206 298.33374 75.935226 301.018127 79.939682 C 302.924591 82.783691 305.618927 88.05246 307.005554 91.648056 C 308.392181 95.243652 309.952026 101.381844 310.471893 105.288475 C 311.171082 110.542641 311.175385 114.156929 310.488434 119.174316 C 309.977631 122.904892 308.84317 128.039886 307.967346 130.585419 C 307.091583 133.130951 305.139618 137.534607 303.6297 140.371338 C 302.119751 143.208069 300.007507 146.5728 298.93573 147.848526 C 297.685913 149.336243 296.177094 150.16803 294.728394 150.16803 Z M 260.538025 145.169189 C 259.707092 145.169189 254.618317 141.794952 249.22963 137.670929 C 239.432007 130.172653 239.432007 130.172653 230.422958 130.172653 C 222.057709 130.172653 221.321213 130.040314 220.116928 128.320984 C 219.066162 126.820808 218.819977 123.772148 218.819977 112.260117 C 218.819977 100.748085 219.066162 97.699425 220.116928 96.199249 C 221.323837 94.476166 222.051788 94.347595 230.60022 94.347595 C 239.78656 94.347595 239.78656 94.347595 248.985519 87.130585 C 254.044952 83.16124 259.029449 79.752045 260.062225 79.554626 C 261.347382 79.30896 262.366486 79.804581 263.291382 81.125031 C 264.475372 82.81543 264.642731 86.671387 264.642731 112.260117 C 264.642731 137.345184 264.459747 141.727112 263.345795 143.317535 C 262.632446 144.335938 261.368988 145.169189 260.538025 145.169189 Z M 284.991486 136.458527 C 284.109802 136.664093 282.735168 136.441589 281.936798 135.964066 C 281.138397 135.486542 280.263916 134.214279 279.9935 133.13681 C 279.658844 131.803528 280.207306 130.111694 281.710571 127.840088 C 282.925446 126.004349 284.456024 122.719299 285.111908 120.539978 C 285.767761 118.360657 286.304413 114.63472 286.304413 112.260117 C 286.304413 109.885521 285.804901 106.282921 285.194366 104.254341 C 284.583862 102.225761 283.041046 98.989471 281.765869 97.062584 C 280.075104 94.507614 279.592377 92.981537 279.98291 91.425613 C 280.277435 90.252167 281.429962 88.87674 282.544128 88.369095 C 284.131409 87.645859 284.987 87.719437 286.497284 88.709 C 287.557373 89.40358 289.434967 91.828049 290.669708 94.09668 C 291.904449 96.365311 293.48941 100.427917 294.191833 103.124702 C 294.894226 105.821472 295.455597 109.917458 295.43927 112.226875 C 295.422943 114.536301 294.916107 118.487846 294.312958 121.008102 C 293.709808 123.528351 292.372925 127.277489 291.342133 129.339508 C 290.31131 131.401535 288.821411 133.762756 288.03125 134.5867 C 287.241058 135.410629 285.873169 136.252945 284.991486 136.458527 Z M 180.71875 122.674385 C 187.46167 122.674385 188.242889 122.501007 190.166229 120.57766 C 191.708908 119.034973 192.112259 117.989258 191.692673 116.620239 C 191.379028 115.596855 190.747452 114.290901 190.289215 113.718117 C 189.716309 113.002022 186.677048 112.676689 180.56012 112.676689 C 174.751923 112.676689 171.3172 113.023705 170.664429 113.67646 C 170.114563 114.226334 169.664673 115.892181 169.664673 117.378349 C 169.664673 119.226181 170.250076 120.490517 171.516327 121.377426 C 172.852554 122.313362 175.414154 122.674385 180.71875 122.674385 Z M 141.897125 118.508675 C 156.753281 118.508675 159.328506 118.31926 160.642807 117.129837 C 162.039169 115.866142 162.166397 114.061241 162.166397 95.515411 C 162.166397 75.548996 162.141769 75.262573 160.314743 73.98288 C 158.786636 72.912552 155.511063 72.685928 141.569061 72.685928 C 125.785904 72.685928 124.565483 72.795502 123.008774 74.352203 C 121.437035 75.92395 121.342491 77.129333 121.342491 95.597305 C 121.342491 114.065254 121.437035 115.270653 123.008774 116.842392 C 124.567581 118.401199 125.785904 118.508675 141.897125 118.508675 Z M 135.853027 107.640427 C 135.356613 107.661003 134.700531 107.427902 134.395035 107.122421 C 134.089554 106.816933 133.8396 101.590271 133.8396 95.507614 C 133.8396 89.353912 134.193771 84.229355 134.638046 83.954773 C 135.077179 83.68338 139.215836 85.977631 143.835052 89.053131 C 149.370148 92.738419 152.148254 95.091354 151.983231 95.954254 C 151.845505 96.674393 148.362946 99.589951 144.244202 102.433296 C 140.125473 105.276627 136.349442 107.619835 135.853027 107.640427 Z M 184.536285 102.679001 C 194.27623 102.679001 197.16713 102.413147 198.639221 101.38205 C 199.749832 100.604141 200.490875 99.213318 200.490875 97.906792 C 200.490875 96.70874 199.870392 95.042892 199.112045 94.204895 C 197.887619 92.851944 196.26622 92.681305 184.634094 92.681305 C 175.154587 92.681305 171.304749 92.969086 170.701782 93.722733 C 170.243546 94.295517 169.628693 95.548798 169.335464 96.507813 C 168.987396 97.646225 169.406784 99.019905 170.543686 100.46524 C 172.285019 102.679001 172.285019 102.679001 184.536285 102.679001 Z M 184.489334 82.683609 C 195.374329 82.683609 197.687073 82.463348 198.967285 81.304779 C 199.805252 80.546417 200.490875 78.880569 200.490875 77.60289 C 200.490875 76.146774 199.79985 74.795822 198.639221 73.98288 C 197.16713 72.951782 194.27623 72.685928 184.536285 72.685928 C 172.285019 72.685928 172.285019 72.685928 170.543686 74.899689 C 169.406784 76.345016 168.987396 77.718704 169.335464 78.857117 C 169.628693 79.816116 170.243546 81.069412 170.701782 81.642197 C 171.304031 82.394958 175.125641 82.683609 184.489334 82.683609 Z"/>
</svg>
