<?xml version="1.0" encoding="UTF-8"?>
<!-- Generated by Pixelmator Pro 3.6.18 -->
<svg width="400" height="225" viewBox="0 0 400 225" xmlns="http://www.w3.org/2000/svg">
    <g id="Group-copy">
        <path id="Rectangle" fill="#ffffff" fill-rule="evenodd" stroke="none" d="M 108 138.893616 C 108 143.370651 111.963013 147 116.851646 147 L 278.148346 147 C 283.036987 147 287 143.370651 287 138.893616 L 287 28.106384 C 287 23.629349 283.036987 20 278.148346 20 L 116.851646 20 C 111.963013 20 108 23.629349 108 28.106384 Z"/>
        <path id="Polygon" fill="#346695" fill-rule="evenodd" stroke="none" d="M 188.579178 88.643402 L 132.997406 56.553253 L 132.997406 120.733551 Z"/>
        <path id="Shape" fill="#323d52" fill-rule="evenodd" stroke="none" d="M 254.833389 13.095093 C 304.519257 13.103241 304.519257 13.103241 305.82196 13.768372 C 306.538422 14.134186 307.48526 14.945541 307.926025 15.571381 C 308.436584 16.296326 308.792206 17.256317 308.905945 18.216766 C 309.056793 19.490524 308.962891 19.972824 308.300201 21.327286 C 307.700409 22.553207 307.200867 23.114944 306.176636 23.715164 C 305.02063 24.392654 304.459106 24.512802 302.072906 24.593246 C 300.55246 24.644501 298.885071 24.752991 298.367615 24.83432 C 297.426788 24.982193 297.426788 24.982193 297.426788 84.024704 L 297.426788 143.06723 L 300.162689 143.06723 C 301.667419 143.06723 303.533905 143.203476 304.310455 143.370026 C 305.122467 143.544159 306.18985 144.058167 306.822723 144.579865 C 307.427948 145.078735 308.164001 146.017212 308.458374 146.665344 C 308.752747 147.313477 308.99646 148.369812 308.999969 149.012756 C 309.00351 149.665833 308.718872 150.7444 308.35498 151.456635 C 307.996735 152.157822 307.246429 153.094757 306.687653 153.538696 C 306.086334 154.016403 305.036346 154.466339 304.115112 154.641052 C 303.100952 154.833374 287.497528 154.936249 259.336639 154.936249 C 228.20874 154.936249 216.059662 155.02536 215.917892 155.254761 C 215.803268 155.440216 224.774094 164.622147 237.395294 177.237549 C 249.316147 189.152924 259.442169 199.416458 259.897552 200.045441 C 260.414612 200.759628 260.782867 201.697876 260.878265 202.54422 C 260.96228 203.289581 260.879333 204.405716 260.693939 205.024506 C 260.508545 205.643311 260.01825 206.551987 259.604431 207.043808 C 259.190582 207.535614 258.352509 208.192841 257.742004 208.504288 C 257.13147 208.81575 256.056488 209.070572 255.353119 209.070572 C 254.649734 209.070572 253.569809 208.863632 252.953308 208.610703 C 252.138199 208.276291 245.479645 201.819366 228.54866 184.945023 C 205.264954 161.739227 205.264954 161.739227 205.049194 163.041916 C 204.930527 163.758408 204.823792 175.368698 204.811981 188.842575 C 204.800186 202.316452 204.710266 213.741852 204.612152 214.232346 C 204.514069 214.722855 203.997284 215.63414 203.46376 216.257431 C 202.930252 216.880722 202.01503 217.617859 201.429947 217.895508 C 200.844864 218.173141 199.896103 218.448135 199.321594 218.506607 C 198.709076 218.568939 197.798096 218.392731 197.11908 218.080566 C 196.482208 217.787781 195.54361 217.120132 195.033325 216.596893 C 194.523026 216.073654 193.904236 215.054855 193.658249 214.332916 C 193.268585 213.189316 193.210419 209.79277 193.206558 187.958725 C 193.203827 172.506561 193.095901 162.730682 192.92511 162.462936 C 192.705566 162.118805 187.966354 166.714264 170.086334 184.608795 C 157.677353 197.027863 146.911758 207.612274 146.162781 208.12973 C 145.001297 208.93219 144.54863 209.070572 143.085251 209.070572 C 141.953613 209.070572 140.991608 208.877792 140.259506 208.504288 C 139.648987 208.192841 138.810852 207.535568 138.396973 207.043686 C 137.983078 206.551819 137.499451 205.610901 137.322235 204.952789 C 137.145035 204.294662 137.083023 203.20285 137.184433 202.526505 C 137.285873 201.850174 137.655411 200.887604 138.005646 200.387482 C 138.355865 199.887344 148.526779 189.600616 160.607666 177.528076 C 173.521133 164.623535 182.49118 155.44577 182.374588 155.257126 C 182.230865 155.024582 170.204834 154.936249 138.688431 154.936249 C 102.159378 154.936249 94.947311 154.870789 93.617699 154.52713 C 92.376236 154.206268 91.781479 153.838898 90.860413 152.82399 C 90.214508 152.112274 89.520752 150.978287 89.318741 150.304031 C 89.01918 149.304199 89.022209 148.830841 89.335167 147.737228 C 89.590477 146.845062 90.166641 145.94397 91.05687 145.044556 C 92.135498 143.954834 92.640541 143.662704 93.66227 143.537537 C 94.359344 143.452133 96.163803 143.304504 97.67218 143.209457 C 99.308838 143.106323 100.503525 142.896912 100.63501 142.690063 C 100.75618 142.499451 100.857323 116.022499 100.859756 83.852371 C 100.863174 38.740295 100.784729 25.281769 100.516808 25.013855 C 100.295372 24.792404 99.167053 24.665878 97.404808 24.664856 C 95.88427 24.663956 94.168922 24.532318 93.592926 24.37233 C 93.016937 24.212341 92.108185 23.786621 91.573486 23.426285 C 91.016251 23.050766 90.260597 22.094452 89.803085 21.185776 C 89.364067 20.313828 89.002686 19.31102 89.000015 18.957321 C 88.997353 18.603622 89.305603 17.612289 89.68502 16.754349 C 90.087341 15.844635 90.781128 14.890472 91.349571 14.465073 C 91.885666 14.063904 92.780228 13.583145 93.337494 13.396729 C 94.092941 13.144012 106.907494 13.043091 143.708481 13 C 143.708481 13 205.147552 13.086929 254.833389 13.095093 Z M 279.91275 33.495865 L 118.233498 33.350098 L 118.233498 85.292557 C 118.233498 134.518127 118.259995 137.241913 118.740097 137.367401 C 119.01873 137.440201 155.070892 137.501907 198.856018 137.504517 C 242.641113 137.507111 278.790985 137.41864 279.189026 137.307922 C 279.91275 137.106598 279.91275 137.106598 279.91275 85.301224 Z"/>
        <path id="path1" fill="#346695" fill-rule="evenodd" stroke="none" d="M 219.021332 118.385666 C 215.906479 118.444695 214.751465 118.356689 214.137894 118.013603 C 213.695908 117.766449 213.072571 117.176743 212.752731 116.703148 C 212.265579 115.981834 212.145813 115.066277 212.014908 111.063545 C 211.858627 106.285042 211.858627 106.285042 210.168259 106.285042 C 208.47789 106.285042 208.47789 106.285042 208.290131 107.440117 C 208.186874 108.075417 207.857971 108.865265 207.55928 109.195328 C 207.260574 109.525383 206.624512 109.88147 206.145782 109.986595 C 205.621994 110.101639 204.922012 109.995049 204.388031 109.71891 C 203.899979 109.46653 203.334946 108.896294 203.132355 108.451691 C 202.872299 107.880898 202.764313 104.861588 202.764923 98.177917 C 202.765396 92.971939 202.918808 87.463928 203.105804 85.937881 C 203.292816 84.411835 203.783768 81.984055 204.196793 80.542801 C 204.609802 79.101547 205.625641 76.525803 206.454193 74.818954 C 207.28273 73.112106 208.777802 70.614944 209.77655 69.26973 C 210.775314 67.924515 212.785263 65.71405 214.243103 64.357559 C 215.700958 63.001068 218.065308 61.1586 219.497223 60.263153 C 220.929092 59.367691 223.308701 58.142548 224.785172 57.540604 C 226.261658 56.938644 228.674042 56.145248 230.146027 55.777496 C 232.395935 55.215393 233.706512 55.108856 238.371582 55.108856 C 243.036667 55.108856 244.347229 55.215393 246.597153 55.777496 C 248.069122 56.145248 250.481522 56.938644 251.958008 57.540604 C 253.434479 58.142548 255.814072 59.367691 257.245972 60.263153 C 258.677856 61.1586 261.042206 63.001068 262.500061 64.357559 C 263.957916 65.71405 265.967865 67.924515 266.966614 69.26973 C 267.965363 70.614944 269.460449 73.112106 270.289001 74.818954 C 271.117523 76.525803 272.133362 79.101547 272.546387 80.542801 C 272.959412 81.984055 273.450348 84.411835 273.63736 85.937881 C 273.824371 87.463928 273.977753 92.971939 273.978241 98.177917 C 273.978851 104.861588 273.87088 107.880898 273.610809 108.451691 C 273.408234 108.896294 272.84317 109.46653 272.355133 109.71891 C 271.821167 109.995049 271.121155 110.101639 270.597382 109.986595 C 270.118683 109.88147 269.482605 109.525383 269.183899 109.195328 C 268.885193 108.865265 268.556305 108.075417 268.453033 107.440117 C 268.265289 106.285042 268.265289 106.285042 266.574921 106.285042 C 264.884552 106.285042 264.884552 106.285042 264.730408 111.063545 C 264.591522 115.369225 264.508423 115.937164 263.890594 116.803268 C 263.513519 117.331955 262.797852 117.933144 262.300232 118.139244 C 261.701813 118.387131 260.083069 118.479179 257.518799 118.411179 C 253.64209 118.308365 253.64209 118.308365 252.635071 117.300499 C 251.628067 116.292625 251.628067 116.292625 251.628067 104.435303 C 251.628067 92.577972 251.628067 92.577972 252.635056 91.570114 C 253.642059 90.562241 253.642059 90.562241 257.721863 90.463226 C 261.581207 90.369537 261.859955 90.403442 262.880676 91.090469 C 263.507538 91.512421 264.113861 92.26442 264.327637 92.885086 C 264.53894 93.49852 264.703003 95.758469 264.713013 98.192421 C 264.730408 102.431412 264.730408 102.431412 266.580139 102.431412 C 268.429901 102.431412 268.429901 102.431412 268.427368 96.188538 C 268.425995 92.754944 268.283356 88.697083 268.110474 87.171051 C 267.937592 85.645004 267.441772 83.217224 267.008667 81.77597 C 266.575592 80.334717 265.617188 78.011902 264.878876 76.614182 C 264.140564 75.216461 262.912048 73.261337 262.148804 72.26947 C 261.38559 71.277588 259.730896 69.507843 258.471771 68.33667 C 257.212646 67.165512 255.055389 65.530334 253.677887 64.702942 C 252.300385 63.875534 249.81897 62.737335 248.163651 62.173615 C 246.508331 61.609909 244.252228 61.004654 243.150085 60.828629 C 242.047943 60.652603 239.897629 60.508591 238.371582 60.508591 C 236.845551 60.508591 234.695236 60.652603 233.593094 60.828629 C 232.490952 61.004654 230.234848 61.609909 228.579529 62.173615 C 226.92421 62.737335 224.442795 63.875534 223.065292 64.702942 C 221.68779 65.530334 219.530548 67.165512 218.271393 68.33667 C 217.012268 69.507843 215.35759 71.277588 214.594376 72.26947 C 213.831146 73.261337 212.602615 75.216461 211.864304 76.614182 C 211.125992 78.011902 210.167572 80.334717 209.734497 81.77597 C 209.301407 83.217224 208.805603 85.645004 208.632706 87.171051 C 208.459808 88.697083 208.3172 92.754944 208.315796 96.188538 C 208.313278 102.431412 208.313278 102.431412 210.163025 102.431412 C 212.012772 102.431412 212.012772 102.431412 212.030167 98.192421 C 212.040161 95.758469 212.204239 93.49852 212.415527 92.885086 C 212.629303 92.26442 213.235641 91.512421 213.862503 91.090469 C 214.883209 90.403442 215.161972 90.369537 219.021332 90.463226 C 223.10112 90.562241 223.10112 90.562241 224.108124 91.570114 C 225.115097 92.577972 225.115097 92.577972 225.115097 104.435303 C 225.115097 116.292625 225.115097 116.292625 224.108124 117.300499 C 223.10112 118.308365 223.10112 118.308365 219.021332 118.385666 Z"/>
    </g>
</svg>
